<svg style="opacity: 0.8" xmlns="http://www.w3.org/2000/svg" viewBox="0 0 64 64">
  <path fill="#E4BC9A" d="M26 42c-1-9-4-13-5-15-1 2-5 6-5 15l5-2 5 2zM3 42a8 8 0 0111 0c0-8 3-13 5-15-9 1-15 7-16 15zM33 40l6 3c-1-9-7-15-16-16 2 2 5 7 5 15l5-2z"/>
  <path fill="#E4BC9A" d="M56 51l-6-2-6 2h-1-1l-6-2-6 2h-1l-6-2v-7h-4v20h4v-3h1l6 2 6-2h1l6 2 6-2h1l6 2 6-2h1v-2l-2 1-5 1-5-1-1-1-2 1-5 1-5-1-2-1-1 1-5 1-5-1-2-1v-2l3 1 4 1 4-1 2-1 3 1 4 1 4-1 3-1 2 1 4 1 4-1 3-1v-2l-4 1-3 1-2-1-4-1-4 1-3 1-3-1-4-1-4 1-2 1-3-1-4-1v-2l5 1 2 1 1-1 5-1 5 1 2 1 2-1 5-1 5 1 1 1 2-1 5-1v-2l-6 2h-1z"/>
  <circle fill="#E4BC9A" cx="47" cy="17" r="10"/>
  <path fill="#E4BC9A" d="M46 1h2v4h-2zM38 4l2-1 2 3-2 1zM33 10l1-2 3 2-1 2zM31 16h4v2h-4zM33 24l3-2 1 2-3 2zM38 30l2-3 2 1-2 3zM46 29h2v4h-2zM52 28l2-1 2 3-2 1zM57 24l1-2 3 2-1 2zM59 16h4v2h-4zM57 10l3-2 1 2-3 2zM52 6l2-3 2 1-2 3z"/>
</svg>